<svg width="85" height="118" viewBox="0 0 85 118" fill="none" xmlns="http://www.w3.org/2000/svg">
<path d="M42.5 0C34.0943 0 25.8774 3.46029 18.8883 9.94329C11.8992 16.4263 6.45186 25.6408 3.23514 36.4217C0.0184145 47.2025 -0.823227 59.0654 0.816644 70.5103C2.45652 81.9552 6.50425 92.468 12.448 100.719C18.3917 108.971 25.9645 114.59 34.2087 116.866C42.4529 119.143 50.9982 117.974 58.7641 113.509C66.5299 109.043 73.1675 101.481 77.8375 91.7786C82.5074 82.0761 85 70.6691 85 59C84.9871 43.3577 80.5053 28.3612 72.5378 17.3004C64.5703 6.23963 53.7678 0.0178463 42.5 0ZM66.7614 96.6167C66.7009 91.089 65.0786 85.8154 62.244 81.9324C59.4094 78.0493 55.5895 75.8675 51.6072 75.8571H33.3929C29.4106 75.8675 25.5906 78.0493 22.756 81.9324C19.9214 85.8154 18.2991 91.089 18.2386 96.6167C12.7335 89.7927 8.85134 80.8084 7.10612 70.8534C5.3609 60.8983 5.83496 50.4422 8.46553 40.8695C11.0961 31.2969 15.7591 23.0592 21.837 17.2472C27.915 11.4353 35.1212 8.32332 42.5015 8.32332C49.8818 8.32332 57.0881 11.4353 63.166 17.2472C69.244 23.0592 73.907 31.2969 76.5375 40.8695C79.1681 50.4422 79.6422 60.8983 77.8969 70.8534C76.1517 80.8084 72.2695 89.7927 66.7645 96.6167H66.7614Z" fill="black"/>
<path d="M43 33C40.8244 33 38.6977 34.1437 36.8887 36.2863C35.0798 38.429 33.6699 41.4745 32.8373 45.0377C32.0048 48.6008 31.7869 52.5216 32.2114 56.3043C32.6358 60.0869 33.6835 63.5614 35.2218 66.2886C36.7602 69.0157 38.7202 70.8729 40.854 71.6253C42.9878 72.3777 45.1995 71.9915 47.2095 70.5156C49.2195 69.0397 50.9375 66.5404 52.1462 63.3336C53.3549 60.1269 54 56.3567 54 52.5C54 47.3283 52.8411 42.3684 50.7782 38.7114C48.7153 35.0545 45.9174 33 43 33Z" fill="black"/>
</svg>
