<svg width="694" height="155" viewBox="0 0 694 155" fill="none" xmlns="http://www.w3.org/2000/svg">
<path d="M210.384 147.744C214.421 150.208 219.347 152.131 224.814 153.377C230.281 154.624 236.156 155.163 242.023 154.957C259.228 154.438 276.084 151.957 291.617 147.659C314.895 153.674 340.69 155.686 365.902 153.451C391.114 151.216 414.67 144.83 433.741 135.061C452.811 125.292 466.583 112.555 473.403 98.3813C480.223 84.2073 479.799 69.1993 472.184 55.1607C491.462 36.2367 497.937 19.0099 482.044 8.6569C477.423 5.56698 471.56 3.1776 464.966 1.69813C458.372 0.218653 451.25 -0.305775 444.223 0.170794C430.296 1.39588 417.271 4.90087 406.697 10.2693C382.958 3.31412 356.135 0.646504 329.728 2.61448C303.321 4.58245 278.555 11.0946 258.662 21.3013C238.77 31.508 224.674 44.9352 218.215 59.8311C211.755 74.7269 213.231 90.3997 222.451 104.804C206.852 115.073 192.283 136.033 210.384 147.744ZM232.458 136.542C229.22 134.421 232.458 127.462 237.903 121.607C244.489 127.073 252.252 132.035 261.007 136.373C245.85 138.919 235.843 138.749 232.458 136.542ZM445.989 92.6693C439.31 107.908 422.429 120.999 399.045 129.075C383.096 134.543 364.915 137.472 346.361 137.561C340.231 137.534 334.119 137.165 328.113 136.458C351.201 128.293 372.97 118.949 393.158 108.538C413.484 98.1884 432.197 86.8301 449.079 74.5939C449.691 80.6751 448.648 86.774 445.989 92.6693ZM447.314 17.2279C449.673 17.0039 452.092 17.1363 454.336 17.6123C456.58 18.0882 458.571 18.8914 460.117 19.9434C463.501 22.1498 462.471 27.9203 456.29 36.3216C449.654 30.4723 441.685 25.1635 432.597 20.5374C437.025 18.828 442.048 17.6983 447.314 17.2279ZM246.585 63.8166C249.812 56.2294 255.625 49.0882 263.685 42.8089C271.744 36.5297 281.889 31.2378 293.53 27.2415C309.487 21.7119 327.744 18.7792 346.361 18.7554C364.188 18.6844 381.734 21.3214 397.234 26.4011C412.734 31.4809 425.641 38.8243 434.658 47.693C436.606 49.4861 438.327 51.3579 439.808 53.2938C420.882 68.9455 398.691 83.1959 373.733 95.7243C349.203 108.734 321.966 119.937 292.647 129.075C274.014 122.474 259.507 112.625 251.226 100.954C242.945 89.2831 241.32 76.3952 246.585 64.156V63.8166Z" fill="#E81010"/>
<path d="M39.936 98.296L40.032 94.264C40.032 89.72 39.648 84.312 38.88 78.04H59.616C59.616 87.128 59.168 95.448 58.272 103C48.352 104.408 38.08 105.112 27.456 105.112H21.312C15.488 102.616 10.944 98.968 7.68 94.168C4.416 89.304 2.784 84.152 2.784 78.712C2.784 71.48 5.696 65.368 11.52 60.376C17.408 55.32 25.984 52.792 37.248 52.792C43.136 52.792 49.696 53.592 56.928 55.192C55.84 59.544 54.592 63.384 53.184 66.712C49.28 66.968 45.088 67.16 40.608 67.288C41.312 65.112 41.824 62.968 42.144 60.856C40.096 60.472 37.984 60.28 35.808 60.28C33.696 60.28 31.168 60.632 28.224 61.336C27.2 65.688 26.688 69.624 26.688 73.144C26.688 78.456 27.872 83.448 30.24 88.12C32.672 92.728 35.904 96.12 39.936 98.296ZM131.021 102.232V103H108.749C108.493 99.352 107.949 95.576 107.117 91.672C103.149 95.704 98.6693 99.48 93.6773 103H71.3093C70.8613 100.376 70.6373 96.92 70.6373 92.632C70.6373 88.28 71.2773 83.928 72.5573 79.576C77.1653 78.232 81.5813 75.96 85.8053 72.76C90.0933 69.56 93.1973 66.104 95.1173 62.392C93.3893 59.704 91.5653 57.24 89.6453 55H121.517C127.853 68.76 131.021 84.504 131.021 102.232ZM105.389 84.664C103.725 78.968 101.549 73.592 98.8613 68.536C95.8533 77.368 94.1253 85.72 93.6773 93.592C98.2853 91.224 102.189 88.248 105.389 84.664ZM195.916 59.416C195.916 57.688 195.66 56.216 195.148 55H222.508C224.812 61.144 226.508 68.664 227.596 77.56C228.748 86.456 229.356 94.936 229.42 103H207.244C206.796 91.48 204.908 80.376 201.58 69.688C196.012 80.568 193.004 91.672 192.556 103H173.74C172.076 90.456 168.876 79.32 164.14 69.592C160.684 77.72 158.956 85.272 158.956 92.248C158.956 96.024 159.404 99.608 160.3 103H136.972C136.524 100.376 136.3 96.92 136.3 92.632C136.3 88.28 136.94 83.928 138.22 79.576C142.764 78.232 147.116 76.024 151.276 72.952C155.5 69.88 158.604 66.52 160.588 62.872C158.924 60.12 157.164 57.496 155.308 55H185.644C188.076 61.592 189.9 68.76 191.116 76.504C194.316 70.552 195.916 64.856 195.916 59.416ZM273.653 74.296L282.677 74.872C283.573 74.872 284.245 74.84 284.693 74.776L280.181 83.224H279.317C278.101 83.224 276.373 82.904 274.133 82.264C271.893 81.56 270.293 81.208 269.333 81.208C266.709 81.208 264.629 82.904 263.093 86.296C262.837 89.432 262.645 92.568 262.517 95.704C265.845 96.344 268.469 96.664 270.389 96.664H271.253C274.005 96.664 276.181 96.056 277.781 94.84C279.445 93.624 280.629 91.448 281.333 88.312L292.853 88.792C291.893 94.296 290.613 99.032 289.013 103H241.877C240.597 94.36 239.957 85.784 239.957 77.272C239.957 68.76 240.405 61.336 241.301 55H292.757C291.605 61.912 290.581 66.776 289.685 69.592C285.909 69.784 282.453 69.912 279.317 69.976C279.829 68.504 280.085 67.128 280.085 65.848C280.085 62.776 277.781 61.24 273.173 61.24C271.445 61.24 269.525 61.432 267.413 61.816C266.005 67.896 264.917 73.24 264.149 77.848C266.709 75.48 269.877 74.296 273.653 74.296ZM307.147 73.72L313.579 73.816C323.435 73.816 330.027 73.272 333.355 72.184C331.307 75.512 328.907 78.616 326.155 81.496H323.275C313.611 81.496 305.643 80.824 299.371 79.48L300.811 78.232C303.563 75.8 305.675 74.296 307.147 73.72ZM397.853 59.416C397.853 57.688 397.597 56.216 397.085 55H424.445C426.749 61.144 428.445 68.664 429.533 77.56C430.685 86.456 431.293 94.936 431.357 103H409.181C408.733 91.48 406.845 80.376 403.517 69.688C397.949 80.568 394.941 91.672 394.493 103H375.677C374.013 90.456 370.813 79.32 366.077 69.592C362.621 77.72 360.893 85.272 360.893 92.248C360.893 96.024 361.341 99.608 362.237 103H338.909C338.461 100.376 338.237 96.92 338.237 92.632C338.237 88.28 338.877 83.928 340.157 79.576C344.701 78.232 349.053 76.024 353.213 72.952C357.437 69.88 360.541 66.52 362.525 62.872C360.861 60.12 359.101 57.496 357.245 55H387.581C390.013 61.592 391.837 68.76 393.053 76.504C396.253 70.552 397.853 64.856 397.853 59.416ZM501.99 102.232V103H479.718C479.462 99.352 478.918 95.576 478.086 91.672C474.118 95.704 469.638 99.48 464.646 103H442.278C441.83 100.376 441.606 96.92 441.606 92.632C441.606 88.28 442.246 83.928 443.526 79.576C448.134 78.232 452.55 75.96 456.774 72.76C461.062 69.56 464.166 66.104 466.086 62.392C464.358 59.704 462.534 57.24 460.614 55H492.486C498.822 68.76 501.99 84.504 501.99 102.232ZM476.358 84.664C474.694 78.968 472.518 73.592 469.83 68.536C466.822 77.368 465.094 85.72 464.646 93.592C469.254 91.224 473.158 88.248 476.358 84.664ZM565.829 55C566.213 61.72 566.405 68.824 566.405 76.312C566.405 83.736 566.085 92.632 565.445 103H556.229C543.813 96.344 532.421 87.288 522.053 75.832C522.565 80.12 522.821 84.536 522.821 89.08C522.821 93.56 522.661 98.2 522.341 103H511.109C512.389 95.128 513.029 87.864 513.029 81.208C513.029 74.488 512.709 69.176 512.069 65.272C509.509 61.432 507.493 58.008 506.021 55H533.285C535.973 59.608 539.621 64.376 544.229 69.304C548.901 74.168 553.349 77.976 557.573 80.728C557.573 71.384 556.517 62.808 554.405 55H565.829ZM605.174 55V57.592C605.174 74.488 604.118 89.624 602.006 103H578.966C580.182 97.112 580.79 90.328 580.79 82.648C580.79 74.904 580.278 65.688 579.254 55H605.174ZM676.74 102.232V103H654.468C654.212 99.352 653.668 95.576 652.836 91.672C648.868 95.704 644.388 99.48 639.396 103H617.028C616.58 100.376 616.356 96.92 616.356 92.632C616.356 88.28 616.996 83.928 618.276 79.576C622.884 78.232 627.3 75.96 631.524 72.76C635.812 69.56 638.916 66.104 640.836 62.392C639.108 59.704 637.284 57.24 635.364 55H667.236C673.572 68.76 676.74 84.504 676.74 102.232ZM651.108 84.664C649.444 78.968 647.268 73.592 644.58 68.536C641.572 77.368 639.844 85.72 639.396 93.592C644.004 91.224 647.908 88.248 651.108 84.664Z" fill="black"/>
</svg>
