<svg width="104" height="93" viewBox="0 0 104 93" fill="none" xmlns="http://www.w3.org/2000/svg">
<path d="M69.3335 69.75C71.632 69.75 73.8364 70.5665 75.4617 72.0199C77.0871 73.4733 78.0002 75.4446 78.0002 77.5C78.0002 79.5554 77.0871 81.5267 75.4617 82.9801C73.8364 84.4335 71.632 85.25 69.3335 85.25C67.035 85.25 64.8306 84.4335 63.2052 82.9801C61.5799 81.5267 60.6668 79.5554 60.6668 77.5C60.6668 75.4446 61.5799 73.4733 63.2052 72.0199C64.8306 70.5665 67.035 69.75 69.3335 69.75ZM69.3335 73.625C68.1842 73.625 67.082 74.0333 66.2694 74.76C65.4567 75.4867 65.0002 76.4723 65.0002 77.5C65.0002 78.5277 65.4567 79.5133 66.2694 80.2401C67.082 80.9668 68.1842 81.375 69.3335 81.375C70.4828 81.375 71.585 80.9668 72.3976 80.2401C73.2103 79.5133 73.6668 78.5277 73.6668 77.5C73.6668 76.4723 73.2103 75.4867 72.3976 74.76C71.585 74.0333 70.4828 73.625 69.3335 73.625ZM30.3335 69.75C32.632 69.75 34.8364 70.5665 36.4618 72.0199C38.0871 73.4733 39.0002 75.4446 39.0002 77.5C39.0002 79.5554 38.0871 81.5267 36.4618 82.9801C34.8364 84.4335 32.632 85.25 30.3335 85.25C28.035 85.25 25.8306 84.4335 24.2052 82.9801C22.5799 81.5267 21.6668 79.5554 21.6668 77.5C21.6668 75.4446 22.5799 73.4733 24.2052 72.0199C25.8306 70.5665 28.035 69.75 30.3335 69.75ZM30.3335 73.625C29.1842 73.625 28.082 74.0333 27.2694 74.76C26.4567 75.4867 26.0002 76.4723 26.0002 77.5C26.0002 78.5277 26.4567 79.5133 27.2694 80.2401C28.082 80.9668 29.1842 81.375 30.3335 81.375C31.4828 81.375 32.585 80.9668 33.3976 80.2401C34.2103 79.5133 34.6668 78.5277 34.6668 77.5C34.6668 76.4723 34.2103 75.4867 33.3976 74.76C32.585 74.0333 31.4828 73.625 30.3335 73.625ZM78.0002 23.25H18.5165L29.5535 46.5H65.0002C65.674 46.5009 66.3386 46.3605 66.9407 46.0899C67.5428 45.8194 68.0655 45.4263 68.4668 44.9423L81.4668 29.4423H81.4712C81.9517 28.8663 82.2437 28.1821 82.3145 27.4662C82.3853 26.7504 82.232 26.031 81.8719 25.3886C81.5118 24.7461 80.959 24.2059 80.2752 23.8282C79.5915 23.4506 78.8038 23.2504 78.0002 23.25ZM65.0002 50.375H29.7528L26.4335 56.42L26.0002 58.125C26.0002 59.1527 26.4567 60.1383 27.2694 60.865C28.082 61.5917 29.1842 62 30.3335 62H78.0002V65.875H30.3335C28.8245 65.8757 27.3414 65.524 26.0311 64.8547C24.7207 64.1855 23.6285 63.2219 22.8624 62.0593C22.0964 60.8967 21.683 59.5754 21.6634 58.2261C21.6437 56.8768 22.0183 55.5463 22.7502 54.3663L25.8702 48.6545L10.1315 15.5H4.3335V11.625H13.0002L16.6792 19.375H78.0002C79.6376 19.3751 81.2415 19.7901 82.6261 20.5718C84.0107 21.3535 85.1193 22.47 85.8235 23.7919C86.5278 25.1139 86.7988 26.5872 86.6052 28.0411C86.4117 29.4951 85.7614 30.8704 84.7298 32.0075L72.1025 47.0658C71.3041 48.088 70.2415 48.9227 69.0049 49.4989C67.7684 50.075 66.3945 50.3756 65.0002 50.375Z" fill="black"/>
</svg>
